<svg width="157" height="28" viewBox="0 0 157 28" fill="none" xmlns="http://www.w3.org/2000/svg">
<path d="M14.6863 24.7109C8.80567 25.3711 5.34356 29.8038 1.40743 26.9744C-2.5287 24.1451 2.61256 18.109 6.76633 11.0827C9.76776 6.00561 11.7235 0.0800257 15.0656 0.000902086C18.8804 -0.0894146 21.6469 6.61897 24.8826 12.5445C28.4046 18.9945 33.4663 23.5368 29.6249 26.9744C25.7835 30.4121 20.5669 24.0507 14.6863 24.7109Z" fill="#3E51DC"/>
<mask id="mask0_303_322" style="mask-type:alpha" maskUnits="userSpaceOnUse" x="0" y="0" width="31" height="28">
<path d="M14.6863 24.7109C8.80567 25.3711 5.34356 29.8038 1.40743 26.9744C-2.5287 24.1451 2.61256 18.109 6.76633 11.0827C9.76776 6.00561 11.7235 0.0800257 15.0656 0.000902086C18.8804 -0.0894146 21.6469 6.61897 24.8826 12.5445C28.4046 18.9945 33.4663 23.5368 29.6249 26.9744C25.7835 30.4121 20.5669 24.0507 14.6863 24.7109Z" fill="#505EC6"/>
</mask>
<g mask="url(#mask0_303_322)">
<path fill-rule="evenodd" clip-rule="evenodd" d="M26.3751 6.00966C30.1123 5.76195 32.0518 10.3359 34.189 13.3654C35.8305 15.6922 37.1014 18.2298 36.9936 21.0612C36.8898 23.7874 35.1492 25.9231 33.6241 28.2006C31.4414 31.46 30.2858 36.2769 26.3751 36.9177C22.3543 37.5766 18.8161 34.1554 16.2324 31.0505C13.9058 28.2547 12.4765 24.609 13.18 21.0612C13.8001 17.934 17.4324 16.7476 19.5466 14.3359C22.0076 11.5287 22.6178 6.2587 26.3751 6.00966Z" fill="white"/>
<path fill-rule="evenodd" clip-rule="evenodd" d="M12.0906 -3.7453C14.5869 -3.28253 16.1043 -1.09477 17.936 0.657328C19.8342 2.47301 22.2941 3.90563 22.7826 6.48192C23.3506 9.47714 22.8606 12.9034 20.6596 15.0204C18.479 17.1178 15.0818 17.2526 12.0906 16.766C9.54799 16.3524 7.80079 14.3853 5.92674 12.6238C3.96097 10.7761 1.57715 9.14069 1.14937 6.48192C0.663588 3.4627 1.33488 0.0866499 3.57296 -2.00538C5.77037 -4.05939 9.1285 -4.29444 12.0906 -3.7453Z" fill="#D2D2D2"/>
<path fill-rule="evenodd" clip-rule="evenodd" d="M7.6623 13.1878C9.93042 13.293 12.447 11.8418 14.2143 13.2631C16.0377 14.7294 16.1746 17.4788 15.879 19.7957C15.6179 21.8412 14.1655 23.3643 12.7352 24.8536C11.2571 26.3929 9.75068 27.8982 7.6623 28.3519C4.97768 28.9352 1.58486 29.7224 -0.237458 27.6721C-2.05429 25.628 -0.0709492 22.524 0.0573907 19.7957C0.174342 17.3096 -1.41153 14.2603 0.470372 12.6251C2.35496 10.9875 5.16518 13.0718 7.6623 13.1878Z" fill="#969696"/>
</g>
<path d="M14.1183 12.0585C14.9543 10.6471 17.0457 10.6472 17.8817 12.0586L20.7061 16.8267C21.5416 18.2373 20.4964 20 18.8243 20H13.1757C11.5036 20 10.4584 18.2373 11.2939 16.8267L14.1183 12.0585Z" fill="#16182D"/>
<path d="M44.6634 22.791H43L47.811 9.41791H49.4488L54.2599 22.791H52.5965L48.6811 11.5336H48.5788L44.6634 22.791ZM45.2776 17.5672H51.9823V19.0037H45.2776V17.5672Z" fill="white"/>
<path d="M60.0882 23C59.1669 23 58.3736 22.778 57.7082 22.334C57.0429 21.8899 56.5311 21.2783 56.1728 20.4991C55.8145 19.7198 55.6354 18.8296 55.6354 17.8284C55.6354 16.8097 55.8188 15.9108 56.1856 15.1315C56.5567 14.3479 57.0727 13.7363 57.7338 13.2966C58.3992 12.8526 59.1754 12.6306 60.0626 12.6306C60.7535 12.6306 61.3762 12.7612 61.9307 13.0224C62.4852 13.2836 62.9394 13.6493 63.2934 14.1194C63.6474 14.5896 63.8671 15.1381 63.9524 15.7649H62.4425C62.3273 15.3078 62.0714 14.903 61.6748 14.5504C61.2824 14.1934 60.7535 14.0149 60.0882 14.0149C59.4996 14.0149 58.9835 14.1716 58.5399 14.4851C58.1006 14.7942 57.7573 15.2317 57.5099 15.7976C57.2668 16.3591 57.1452 17.0187 57.1452 17.7761C57.1452 18.551 57.2647 19.2257 57.5035 19.8004C57.7466 20.375 58.0878 20.8212 58.5271 21.139C58.9707 21.4568 59.491 21.6157 60.0882 21.6157C60.4806 21.6157 60.8367 21.546 61.1566 21.4067C61.4765 21.2674 61.7473 21.0672 61.9691 20.806C62.1909 20.5448 62.3487 20.2313 62.4425 19.8657H63.9524C63.8671 20.4577 63.6559 20.991 63.319 21.4655C62.9863 21.9356 62.5449 22.31 61.9947 22.5886C61.4487 22.8629 60.8132 23 60.0882 23Z" fill="white"/>
<path d="M70.4332 12.7612V14.0672H65.3406V12.7612H70.4332ZM66.8249 10.3582H68.3348V19.9179C68.3348 20.3532 68.3966 20.6797 68.5203 20.8974C68.6482 21.1107 68.8103 21.2544 69.0065 21.3284C69.207 21.398 69.4181 21.4328 69.6399 21.4328C69.8062 21.4328 69.9427 21.4241 70.0493 21.4067C70.156 21.3849 70.2413 21.3675 70.3052 21.3545L70.6123 22.7388C70.51 22.778 70.3671 22.8172 70.1837 22.8563C70.0003 22.8999 69.7678 22.9216 69.4863 22.9216C69.0598 22.9216 68.6418 22.828 68.2324 22.6409C67.8272 22.4537 67.4903 22.1685 67.2216 21.7854C66.9571 21.4024 66.8249 20.9192 66.8249 20.3358V10.3582Z" fill="white"/>
<path d="M72.7044 22.791V12.7612H74.2142V22.791H72.7044ZM73.4721 11.0896C73.1778 11.0896 72.924 10.9873 72.7108 10.7826C72.5018 10.578 72.3973 10.3321 72.3973 10.0448C72.3973 9.75746 72.5018 9.5115 72.7108 9.3069C72.924 9.1023 73.1778 9 73.4721 9C73.7664 9 74.018 9.1023 74.227 9.3069C74.4403 9.5115 74.5469 9.75746 74.5469 10.0448C74.5469 10.3321 74.4403 10.578 74.227 10.7826C74.018 10.9873 73.7664 11.0896 73.4721 11.0896Z" fill="white"/>
<path d="M80.9717 23C80.0846 23 79.3062 22.7845 78.6366 22.3535C77.9712 21.9226 77.4509 21.3197 77.0756 20.5448C76.7045 19.7699 76.519 18.8644 76.519 17.8284C76.519 16.7836 76.7045 15.8716 77.0756 15.0924C77.4509 14.3131 77.9712 13.708 78.6366 13.2771C79.3062 12.8461 80.0846 12.6306 80.9717 12.6306C81.8589 12.6306 82.6351 12.8461 83.3005 13.2771C83.9701 13.708 84.4905 14.3131 84.8615 15.0924C85.2369 15.8716 85.4245 16.7836 85.4245 17.8284C85.4245 18.8644 85.2369 19.7699 84.8615 20.5448C84.4905 21.3197 83.9701 21.9226 83.3005 22.3535C82.6351 22.7845 81.8589 23 80.9717 23ZM80.9717 21.6157C81.6456 21.6157 82.2001 21.4394 82.6351 21.0868C83.0702 20.7341 83.3922 20.2705 83.6012 19.6959C83.8102 19.1213 83.9147 18.4988 83.9147 17.8284C83.9147 17.158 83.8102 16.5333 83.6012 15.9543C83.3922 15.3753 83.0702 14.9073 82.6351 14.5504C82.2001 14.1934 81.6456 14.0149 80.9717 14.0149C80.2979 14.0149 79.7434 14.1934 79.3083 14.5504C78.8733 14.9073 78.5513 15.3753 78.3423 15.9543C78.1333 16.5333 78.0288 17.158 78.0288 17.8284C78.0288 18.4988 78.1333 19.1213 78.3423 19.6959C78.5513 20.2705 78.8733 20.7341 79.3083 21.0868C79.7434 21.4394 80.2979 21.6157 80.9717 21.6157Z" fill="white"/>
<path d="M89.2391 16.7575V22.791H87.7293V12.7612H89.1879V14.3284H89.3159C89.5462 13.819 89.896 13.4098 90.3651 13.1007C90.8343 12.7873 91.4399 12.6306 92.182 12.6306C92.8474 12.6306 93.4296 12.7699 93.9286 13.0485C94.4276 13.3228 94.8158 13.7407 95.093 14.3022C95.3702 14.8595 95.5088 15.5647 95.5088 16.4179V22.791H93.999V16.5224C93.999 15.7345 93.7985 15.1206 93.3976 14.681C92.9967 14.2369 92.4465 14.0149 91.747 14.0149C91.2651 14.0149 90.8343 14.1216 90.4547 14.3349C90.0794 14.5482 89.7829 14.8595 89.5654 15.2687C89.3479 15.6779 89.2391 16.1741 89.2391 16.7575Z" fill="white"/>
<path d="M103.54 22.791V9.41791H108.12C109.033 9.41791 109.786 9.57898 110.379 9.90112C110.971 10.2189 111.413 10.6477 111.703 11.1875C111.993 11.7229 112.138 12.3172 112.138 12.9701C112.138 13.5448 112.038 14.0193 111.837 14.3937C111.641 14.768 111.381 15.0641 111.057 15.2817C110.737 15.4994 110.389 15.6604 110.014 15.7649V15.8955C110.415 15.9216 110.818 16.0653 111.223 16.3265C111.628 16.5877 111.967 16.9621 112.24 17.4496C112.513 17.9372 112.65 18.5336 112.65 19.2388C112.65 19.9092 112.501 20.5121 112.202 21.0476C111.903 21.583 111.432 22.0075 110.788 22.3209C110.144 22.6343 109.306 22.791 108.274 22.791H103.54ZM105.126 21.3545H108.274C109.31 21.3545 110.046 21.1499 110.481 20.7407C110.92 20.3271 111.14 19.8265 111.14 19.2388C111.14 18.7861 111.027 18.3682 110.801 17.9851C110.575 17.5976 110.253 17.2886 109.835 17.0578C109.417 16.8228 108.922 16.7052 108.351 16.7052H105.126V21.3545ZM105.126 15.2948H108.069C108.547 15.2948 108.978 15.199 109.361 15.0075C109.75 14.8159 110.057 14.546 110.283 14.1978C110.513 13.8495 110.628 13.4403 110.628 12.9701C110.628 12.3825 110.428 11.884 110.027 11.4748C109.626 11.0613 108.99 10.8545 108.12 10.8545H105.126V15.2948Z" fill="white"/>
<path d="M115.052 22.791V12.7612H116.511V14.2761H116.613C116.792 13.7799 117.116 13.3772 117.586 13.0681C118.055 12.759 118.584 12.6045 119.172 12.6045C119.283 12.6045 119.422 12.6067 119.588 12.611C119.754 12.6154 119.88 12.6219 119.966 12.6306V14.1978C119.914 14.1847 119.797 14.1651 119.614 14.139C119.435 14.1085 119.245 14.0933 119.044 14.0933C118.567 14.0933 118.14 14.1956 117.765 14.4002C117.394 14.6004 117.099 14.879 116.882 15.236C116.669 15.5886 116.562 15.9913 116.562 16.444V22.791H115.052Z" fill="white"/>
<path d="M125.448 23C124.561 23 123.783 22.7845 123.113 22.3535C122.448 21.9226 121.927 21.3197 121.552 20.5448C121.181 19.7699 120.996 18.8644 120.996 17.8284C120.996 16.7836 121.181 15.8716 121.552 15.0924C121.927 14.3131 122.448 13.708 123.113 13.2771C123.783 12.8461 124.561 12.6306 125.448 12.6306C126.335 12.6306 127.112 12.8461 127.777 13.2771C128.447 13.708 128.967 14.3131 129.338 15.0924C129.713 15.8716 129.901 16.7836 129.901 17.8284C129.901 18.8644 129.713 19.7699 129.338 20.5448C128.967 21.3197 128.447 21.9226 127.777 22.3535C127.112 22.7845 126.335 23 125.448 23ZM125.448 21.6157C126.122 21.6157 126.677 21.4394 127.112 21.0868C127.547 20.7341 127.869 20.2705 128.078 19.6959C128.287 19.1213 128.391 18.4988 128.391 17.8284C128.391 17.158 128.287 16.5333 128.078 15.9543C127.869 15.3753 127.547 14.9073 127.112 14.5504C126.677 14.1934 126.122 14.0149 125.448 14.0149C124.774 14.0149 124.22 14.1934 123.785 14.5504C123.35 14.9073 123.028 15.3753 122.819 15.9543C122.61 16.5333 122.505 17.158 122.505 17.8284C122.505 18.4988 122.61 19.1213 122.819 19.6959C123.028 20.2705 123.35 20.7341 123.785 21.0868C124.22 21.4394 124.774 21.6157 125.448 21.6157Z" fill="white"/>
<path d="M133.613 19.1343L133.588 17.2276H133.895L138.194 12.7612H140.062L135.481 17.4888H135.353L133.613 19.1343ZM132.206 22.791V9.41791H133.716V22.791H132.206ZM138.45 22.791L134.611 17.8284L135.686 16.7575L140.369 22.791H138.45Z" fill="white"/>
<path d="M145.721 23C144.774 23 143.957 22.7867 143.271 22.3601C142.588 21.9291 142.061 21.3284 141.69 20.5578C141.324 19.783 141.14 18.8818 141.14 17.8545C141.14 16.8271 141.324 15.9216 141.69 15.1381C142.061 14.3501 142.578 13.7363 143.239 13.2966C143.904 12.8526 144.68 12.6306 145.567 12.6306C146.079 12.6306 146.585 12.7177 147.084 12.8918C147.583 13.0659 148.037 13.3489 148.446 13.7407C148.856 14.1281 149.182 14.6418 149.425 15.2817C149.668 15.9216 149.79 16.7096 149.79 17.6455V18.2985H142.215V16.9664H148.254C148.254 16.4005 148.143 15.8955 147.922 15.4515C147.704 15.0075 147.393 14.657 146.988 14.4002C146.587 14.1433 146.113 14.0149 145.567 14.0149C144.966 14.0149 144.446 14.1673 144.006 14.472C143.571 14.7724 143.236 15.1642 143.002 15.6474C142.767 16.1306 142.65 16.6486 142.65 17.2015V18.0896C142.65 18.847 142.778 19.4891 143.034 20.0159C143.294 20.5382 143.654 20.9366 144.115 21.2108C144.576 21.4807 145.111 21.6157 145.721 21.6157C146.118 21.6157 146.476 21.5591 146.796 21.4459C147.12 21.3284 147.399 21.1542 147.634 20.9235C147.868 20.6884 148.05 20.3968 148.178 20.0485L149.636 20.4664C149.483 20.9714 149.225 21.4154 148.862 21.7985C148.5 22.1772 148.052 22.4733 147.519 22.6866C146.986 22.8955 146.386 23 145.721 23Z" fill="white"/>
<path d="M152.087 22.791V12.7612H153.545V14.2761H153.648C153.827 13.7799 154.151 13.3772 154.62 13.0681C155.089 12.759 155.618 12.6045 156.207 12.6045C156.318 12.6045 156.456 12.6067 156.623 12.611C156.789 12.6154 156.915 12.6219 157 12.6306V14.1978C156.949 14.1847 156.832 14.1651 156.648 14.139C156.469 14.1085 156.279 14.0933 156.079 14.0933C155.601 14.0933 155.175 14.1956 154.799 14.4002C154.428 14.6004 154.134 14.879 153.916 15.236C153.703 15.5886 153.596 15.9913 153.596 16.444V22.791H152.087Z" fill="white"/>
</svg>
