<svg width="24" height="24" viewBox="0 0 24 24" fill="none" xmlns="http://www.w3.org/2000/svg">
<mask id="mask0_270_1096" style="mask-type:alpha" maskUnits="userSpaceOnUse" x="0" y="0" width="24" height="24">
<rect width="24" height="24" fill="#C4C4C4"/>
</mask>
<g mask="url(#mask0_270_1096)">
<path d="M19.996 19.9999V19.9993H20V14.4876C20 11.7913 19.3853 9.71423 16.0471 9.71423C14.4424 9.71423 13.3655 10.5458 12.9258 11.3342H12.8794V9.96596H9.71429V19.9993H13.01V15.0312C13.01 13.7231 13.2726 12.4582 14.9881 12.4582C16.6784 12.4582 16.7036 13.951 16.7036 15.1151V19.9999H19.996Z" fill="white"/>
<path d="M4 9.71423H7.42857V19.9999H4V9.71423Z" fill="white"/>
<path d="M5.71429 4C4.76792 4 4 4.76434 4 5.70629C4 6.64825 4.76792 7.42857 5.71429 7.42857C6.66065 7.42857 7.42857 6.64825 7.42857 5.70629C7.42798 4.76434 6.66006 4 5.71429 4V4Z" fill="white"/>
</g>
</svg>
