<svg width="77" height="78" viewBox="0 0 77 78" fill="none" xmlns="http://www.w3.org/2000/svg">
<g clip-path="url(#clip0_2100_736)">
<path fill-rule="evenodd" clip-rule="evenodd" d="M55.4193 44.4149L68.2523 66.8703C68.5536 67.3974 68.5107 68.0559 68.1436 68.5384C67.7765 69.021 67.158 69.2327 66.5759 69.0742L56.6831 66.3817L54.045 76.3831C53.8899 76.9712 53.3991 77.4069 52.8018 77.4868C52.7363 77.4955 52.671 77.4999 52.6061 77.4999C52.0795 77.4999 51.5856 77.2173 51.3173 76.7479L37.8156 53.1225L24.3139 76.7481C24.0457 77.2173 23.5519 77.5 23.0252 77.5C22.9603 77.5 22.895 77.4956 22.8295 77.4869C22.2321 77.4071 21.7414 76.9714 21.5863 76.3832L18.9481 66.3818L9.05549 69.0744C8.47357 69.2325 7.85475 69.021 7.48779 68.5385C7.12069 68.0559 7.07782 67.3974 7.37897 66.8703L20.2121 44.415C15.4645 39.765 12.5087 33.2583 12.5087 26.0664C12.5087 11.9691 23.8612 0.5 37.8156 0.5C51.77 0.5 63.1226 11.9691 63.1226 26.0664C63.1226 33.2583 60.1667 39.765 55.4193 44.4149ZM37.8156 3.50781C25.5031 3.50781 15.486 13.6276 15.486 26.0664C15.486 38.5051 25.5031 48.6249 37.8156 48.6249C50.1282 48.6249 60.1453 38.5051 60.1453 26.0664C60.1453 13.6276 50.1282 3.50781 37.8156 3.50781ZM21.4407 64.1502L23.536 72.0936L35.3013 51.5068C30.5244 51.0286 26.1345 49.2023 22.509 46.4116L11.7578 65.2238L19.6149 63.0852C19.997 62.9813 20.404 63.0352 20.7465 63.235C21.0891 63.4347 21.3389 63.7641 21.4407 64.1502ZM54.8847 63.2349C55.2272 63.035 55.6343 62.9812 56.0164 63.0851L63.8733 65.2236L53.1223 46.4113C49.4967 49.202 45.1069 51.0283 40.33 51.5065L52.0953 72.0935L54.1906 64.15C54.2924 63.764 54.5422 63.4347 54.8847 63.2349ZM30.348 24.8572C29.6274 24.1292 29.3727 23.0605 29.6833 22.0681C29.994 21.0759 30.8054 20.3661 31.8009 20.2156L35.0214 19.7293L36.4608 16.7024C36.9059 15.7667 37.8073 15.1854 38.8133 15.1851H38.814C39.8198 15.1851 40.721 15.7658 41.1665 16.7012L42.6075 19.7273L45.8283 20.2118C46.8238 20.3616 47.6356 21.071 47.9468 22.0631C48.2579 23.0552 48.0038 24.124 47.2836 24.8525L44.9537 27.209L45.5047 30.5353C45.6751 31.5635 45.2754 32.5834 44.4616 33.1968C43.6479 33.8104 42.5891 33.8899 41.6985 33.4047L38.8175 31.835L35.9373 33.4063C35.5499 33.6176 35.1305 33.7221 34.7134 33.7221C34.1718 33.7221 33.6341 33.5463 33.1742 33.2C32.3601 32.5869 31.9599 31.5673 32.1297 30.5389L32.6791 27.2124L30.348 24.8572ZM37.2972 21.7795C37.0849 22.2256 36.6746 22.535 36.1999 22.6067L32.8056 23.1191L35.2624 25.6014C35.606 25.9486 35.763 26.4489 35.682 26.9393L35.103 30.4453L38.1387 28.7892C38.5633 28.5576 39.0707 28.5575 39.4953 28.7889L42.5318 30.4434L41.9511 26.9376C41.8699 26.4473 42.0266 25.9469 42.37 25.5995L44.8256 23.1159L41.4309 22.6053C40.9561 22.534 40.5457 22.2248 40.3331 21.7788L38.8143 18.5894L37.2972 21.7795ZM38.1025 45.1297C48.3168 45.1297 56.6266 36.5186 56.6266 25.9339C56.6266 18.1323 52.1309 11.166 45.1731 8.18635C44.4222 7.86459 43.5628 8.2348 43.2529 9.01238C42.9429 9.78997 43.2997 10.6809 44.0501 11.0022C49.9038 13.5091 53.6863 19.3702 53.6863 25.9339C53.6863 34.8385 46.6955 42.0828 38.1025 42.0828C29.5095 42.0828 22.5186 34.8385 22.5186 25.9339C22.5186 19.3545 26.3135 13.4882 32.1864 10.9888C32.9375 10.6692 33.2963 9.779 32.9879 9.0008C32.6793 8.22246 31.8206 7.85073 31.0695 8.1702C24.0888 11.1411 19.5783 18.1137 19.5783 25.9339C19.5783 36.5186 27.8883 45.1297 38.1025 45.1297ZM39.11 9.06345C38.845 9.32867 38.4773 9.48125 38.1026 9.48125C37.7278 9.48125 37.3602 9.32867 37.0951 9.06345C36.8287 8.79823 36.6776 8.43034 36.6776 8.05532C36.6776 7.6803 36.8287 7.31241 37.0951 7.04719C37.3602 6.78197 37.7278 6.62939 38.1026 6.62939C38.4773 6.62939 38.845 6.78197 39.11 7.04719C39.375 7.31241 39.5275 7.6803 39.5275 8.05532C39.5275 8.43034 39.375 8.79823 39.11 9.06345Z" fill="url(#paint0_linear_2100_736)"/>
</g>
<defs>
<linearGradient id="paint0_linear_2100_736" x1="62.0396" y1="81.7778" x2="14.2048" y2="15.5364" gradientUnits="userSpaceOnUse">
<stop stop-color="#FFD652" stop-opacity="0.54"/>
<stop offset="1" stop-color="#FB9D46"/>
</linearGradient>
<clipPath id="clip0_2100_736">
<rect width="76.9466" height="77" fill="white" transform="translate(0.0549316 0.5)"/>
</clipPath>
</defs>
</svg>
